<svg width="169" height="46" viewBox="0 0 169 46" fill="none" xmlns="http://www.w3.org/2000/svg">
<path d="M28.992 43.784C26.816 45.0213 23.8507 45.64 20.096 45.64C15.1893 45.64 11.4133 44.4667 8.768 42.12C6.12267 39.7307 4.8 36.168 4.8 31.432V22.472H0V11.912H4.8V2.12H19.264V11.912H26.432V22.472H19.264V31.304C19.264 32.3707 19.5413 33.2027 20.096 33.8C20.6507 34.3973 21.376 34.696 22.272 34.696C23.5093 34.696 24.5973 34.376 25.536 33.736L28.992 43.784ZM47.0375 9.352C53.1815 9.352 57.8748 10.7387 61.1175 13.512C64.3602 16.2427 65.9815 20.4667 65.9815 26.184V45H52.5415V40.392C50.8775 43.8907 47.5708 45.64 42.6215 45.64C39.8482 45.64 37.4802 45.1707 35.5175 44.232C33.5975 43.2507 32.1255 41.9493 31.1015 40.328C30.1202 38.664 29.6295 36.808 29.6295 34.76C29.6295 31.304 30.9522 28.68 33.5975 26.888C36.2428 25.096 40.2535 24.2 45.6295 24.2H51.4535C50.9842 21.4693 48.7868 20.104 44.8615 20.104C43.2828 20.104 41.6828 20.36 40.0615 20.872C38.4402 21.3413 37.0535 22.0027 35.9015 22.856L31.2935 13.32C33.2988 12.0827 35.7095 11.1227 38.5255 10.44C41.3842 9.71466 44.2215 9.352 47.0375 9.352ZM46.9735 36.936C47.9975 36.936 48.9148 36.6587 49.7255 36.104C50.5362 35.5493 51.1335 34.7173 51.5175 33.608V31.176H47.9335C44.9895 31.176 43.5175 32.1573 43.5175 34.12C43.5175 34.9307 43.8162 35.6133 44.4135 36.168C45.0535 36.68 45.9068 36.936 46.9735 36.936ZM111.401 45L111.273 24.584L101.545 40.968H94.8885L85.1605 25.288V45H71.4005V0.199997H83.8165L98.4085 24.072L112.617 0.199997H125.033L125.161 45H111.401ZM168.431 33.608V45H131.183V0.199997H167.599V11.592H146.031V16.84H164.975V27.72H146.031V33.608H168.431Z" fill="#FF8577"/>
</svg>
