<svg id="Capa_1" enable-background="new 0 0 512 512" height="512" viewBox="0 0 512 512" width="512" xmlns="http://www.w3.org/2000/svg"><g><path d="m509.158 463.213c-13.333-31.111-43.819-51.213-77.666-51.213h-41.492v-24.874c0-33.245-9.921-65.321-28.692-92.76-18.77-27.439-45.069-48.312-76.054-60.361-47.061-18.301-79.584-60.866-84.878-111.082l-1.821-17.278 11.481-32.146c6.008-16.821 3.451-35.581-6.838-50.181-10.29-14.601-27.096-23.318-44.958-23.318h-49.208c-12.442 0-24.644 4.28-34.359 12.052l-34.935 27.948h-24.738c-3.978 0-7.793 1.581-10.606 4.394s-4.394 6.628-4.394 10.606v60c0 19.253 15.729 34.954 35.061 35 12.948.031 23.624 9.977 24.826 22.619l-3.608 9.754c-16.737 45.238-11.567 96.098 13.721 137.006v115.191c-17.461 6.191-30 22.874-30 42.43v20c0 8.284 6.716 15 15 15h421.988c11.8 0 22.724-5.881 29.22-15.733 6.496-9.851 7.599-22.208 2.95-33.054zm-439.158 13.787c0-8.271 6.729-15 15-15 8.284 0 15-6.716 15-15v-132c0-2.938-.863-5.811-2.48-8.262-22.174-33.599-27.073-76.199-13.105-113.956l4.653-12.578c.617-1.665.932-3.428.932-5.204 0-30.255-24.614-54.928-54.868-55-2.83-.007-5.131-2.25-5.131-5v-45h15c3.406 0 6.711-1.159 9.371-3.287l39.043-31.235c4.415-3.533 9.961-5.478 15.616-5.478h49.208c8.24 0 15.688 3.863 20.435 10.599s5.88 15.05 3.109 22.81l-13.277 37.176c-.958 2.681-3.031 3.283-4.602 3.317-1.598.033-3.668-.479-4.739-3.117l-12.769-31.429c-3.118-7.675-11.868-11.371-19.543-8.251-7.675 3.118-11.369 11.868-8.251 19.542l12.769 31.43c5.512 13.568 18.546 22.144 33.176 21.819 2.362-.051 4.665-.354 6.899-.845 4.088 27.444 15.043 53.434 31.937 75.545 18.322 23.979 42.873 42.434 70.998 53.371 52.012 20.224 85.619 69.353 85.619 125.159v69.874c0 13.785-11.215 25-25 25h-125v-15c0-8.271 6.729-15 15-15h30c8.284 0 15-6.716 15-15 0-24.813 20.187-45 45-45 8.284 0 15-6.716 15-15s-6.716-15-15-15c-36.219 0-66.522 25.808-73.491 60h-16.509c-24.813 0-45 20.187-45 45v15h-20v-207c0-8.284-6.716-15-15-15s-15 6.716-15 15v207h-60zm411.163 2.752c-.554.839-1.832 2.248-4.174 2.248h-93.023c3.849-7.507 6.035-16 6.035-25v-15h41.492c21.83 0 41.492 12.965 50.092 33.031.922 2.153.131 3.882-.422 4.721z"/></g></svg>