<svg width="0" height="0" class="hidden">
  <symbol xmlns="http://www.w3.org/2000/svg" viewBox="0 0 512 512" id="pin">
    <path d="M256 0C161.896 0 85.333 76.563 85.333 170.667c0 28.25 7.063 56.26 20.49 81.104L246.667 506.5c1.875 3.396 5.448 5.5 9.333 5.5s7.458-2.104 9.333-5.5l140.896-254.813c13.375-24.76 20.438-52.771 20.438-81.021C426.667 76.563 350.104 0 256 0zm0 256c-47.052 0-85.333-38.281-85.333-85.333S208.948 85.334 256 85.334s85.333 38.281 85.333 85.333S303.052 256 256 256z"></path>
  </symbol>
  <symbol xmlns="http://www.w3.org/2000/svg" viewBox="0 0 24 24" id="suitcase">
    <path d="M21.5 22h-19C1.1 22 0 20.9 0 19.5v-12C0 6.1 1.1 5 2.5 5h19C22.9 5 24 6.1 24 7.5v12c0 1.4-1.1 2.5-2.5 2.5zM2.5 6C1.7 6 1 6.7 1 7.5v12c0 .8.7 1.5 1.5 1.5h19c.8 0 1.5-.7 1.5-1.5v-12c0-.8-.7-1.5-1.5-1.5z"></path>
    <path d="M15.5 6c-.3 0-.5-.2-.5-.5v-2c0-.3-.2-.5-.5-.5h-5c-.3 0-.5.2-.5.5v2c0 .3-.2.5-.5.5S8 5.8 8 5.5v-2C8 2.7 8.7 2 9.5 2h5c.8 0 1.5.7 1.5 1.5v2c0 .3-.2.5-.5.5zM12 14h-.2L.3 10c-.2-.1-.4-.4-.3-.7.1-.2.4-.4.7-.3L12 13l11.3-4c.3-.1.5 0 .6.3s0 .5-.3.6l-11.5 4c0 .1 0 .1-.1.1z"></path>
  </symbol>
  <symbol xmlns="http://www.w3.org/2000/svg" viewBox="0 0 24 24" id="vk">
    <path d="M19.915 13.028c-.388-.49-.277-.708 0-1.146.005-.005 3.208-4.431 3.538-5.932l.002-.001c.164-.547 0-.949-.793-.949h-2.624c-.668 0-.976.345-1.141.731 0 0-1.336 3.198-3.226 5.271-.61.599-.892.791-1.225.791-.164 0-.419-.192-.419-.739V5.949c0-.656-.187-.949-.74-.949H9.161c-.419 0-.668.306-.668.591 0 .622.945.765 1.043 2.515v3.797c0 .832-.151.985-.486.985-.892 0-3.057-3.211-4.34-6.886-.259-.713-.512-1.001-1.185-1.001H.9c-.749 0-.9.345-.9.731 0 .682.892 4.073 4.148 8.553C6.318 17.343 9.374 19 12.154 19c1.671 0 1.875-.368 1.875-1.001 0-2.922-.151-3.198.686-3.198.388 0 1.056.192 2.616 1.667C19.114 18.217 19.407 19 20.405 19h2.624c.748 0 1.127-.368.909-1.094-.499-1.527-3.871-4.668-4.023-4.878z"></path>
  </symbol>
  <symbol id="ig" viewBox="0 0 511 511.9" xmlns="http://www.w3.org/2000/svg">
    <path d="m510.949219 150.5c-1.199219-27.199219-5.597657-45.898438-11.898438-62.101562-6.5-17.199219-16.5-32.597657-29.601562-45.398438-12.800781-13-28.300781-23.101562-45.300781-29.5-16.296876-6.300781-34.898438-10.699219-62.097657-11.898438-27.402343-1.300781-36.101562-1.601562-105.601562-1.601562s-78.199219.300781-105.5 1.5c-27.199219 1.199219-45.898438 5.601562-62.097657 11.898438-17.203124 6.5-32.601562 16.5-45.402343 29.601562-13 12.800781-23.097657 28.300781-29.5 45.300781-6.300781 16.300781-10.699219 34.898438-11.898438 62.097657-1.300781 27.402343-1.601562 36.101562-1.601562 105.601562s.300781 78.199219 1.5 105.5c1.199219 27.199219 5.601562 45.898438 11.902343 62.101562 6.5 17.199219 16.597657 32.597657 29.597657 45.398438 12.800781 13 28.300781 23.101562 45.300781 29.5 16.300781 6.300781 34.898438 10.699219 62.101562 11.898438 27.296876 1.203124 36 1.5 105.5 1.5s78.199219-.296876 105.5-1.5c27.199219-1.199219 45.898438-5.597657 62.097657-11.898438 34.402343-13.300781 61.601562-40.5 74.902343-74.898438 6.296876-16.300781 10.699219-34.902343 11.898438-62.101562 1.199219-27.300781 1.5-36 1.5-105.5s-.101562-78.199219-1.300781-105.5zm-46.097657 209c-1.101562 25-5.300781 38.5-8.800781 47.5-8.601562 22.300781-26.300781 40-48.601562 48.601562-9 3.5-22.597657 7.699219-47.5 8.796876-27 1.203124-35.097657 1.5-103.398438 1.5s-76.5-.296876-103.402343-1.5c-25-1.097657-38.5-5.296876-47.5-8.796876-11.097657-4.101562-21.199219-10.601562-29.398438-19.101562-8.5-8.300781-15-18.300781-19.101562-29.398438-3.5-9-7.699219-22.601562-8.796876-47.5-1.203124-27-1.5-35.101562-1.5-103.402343s.296876-76.5 1.5-103.398438c1.097657-25 5.296876-38.5 8.796876-47.5 4.101562-11.101562 10.601562-21.199219 19.203124-29.402343 8.296876-8.5 18.296876-15 29.398438-19.097657 9-3.5 22.601562-7.699219 47.5-8.800781 27-1.199219 35.101562-1.5 103.398438-1.5 68.402343 0 76.5.300781 103.402343 1.5 25 1.101562 38.5 5.300781 47.5 8.800781 11.097657 4.097657 21.199219 10.597657 29.398438 19.097657 8.5 8.300781 15 18.300781 19.101562 29.402343 3.5 9 7.699219 22.597657 8.800781 47.5 1.199219 27 1.5 35.097657 1.5 103.398438s-.300781 76.300781-1.5 103.300781zm0 0"/><path d="m256.449219 124.5c-72.597657 0-131.5 58.898438-131.5 131.5s58.902343 131.5 131.5 131.5c72.601562 0 131.5-58.898438 131.5-131.5s-58.898438-131.5-131.5-131.5zm0 216.800781c-47.097657 0-85.300781-38.199219-85.300781-85.300781s38.203124-85.300781 85.300781-85.300781c47.101562 0 85.300781 38.199219 85.300781 85.300781s-38.199219 85.300781-85.300781 85.300781zm0 0"/><path d="m423.851562 119.300781c0 16.953125-13.746093 30.699219-30.703124 30.699219-16.953126 0-30.699219-13.746094-30.699219-30.699219 0-16.957031 13.746093-30.699219 30.699219-30.699219 16.957031 0 30.703124 13.742188 30.703124 30.699219zm0 0"/>
  </symbol>
  <symbol xmlns="http://www.w3.org/2000/svg" viewBox="0 0 477.873 477.873" id="edit">
    <path d="M392.533 238.937c-9.426 0-17.067 7.641-17.067 17.067V426.67c0 9.426-7.641 17.067-17.067 17.067H51.2c-9.426 0-17.067-7.641-17.067-17.067V85.337c0-9.426 7.641-17.067 17.067-17.067H256c9.426 0 17.067-7.641 17.067-17.067S265.426 34.137 256 34.137H51.2C22.923 34.137 0 57.06 0 85.337V426.67c0 28.277 22.923 51.2 51.2 51.2h307.2c28.277 0 51.2-22.923 51.2-51.2V256.003c0-9.425-7.641-17.066-17.067-17.066z"></path>
    <path d="M458.742 19.142A65.328 65.328 0 00412.536.004a64.85 64.85 0 00-46.199 19.149L141.534 243.937a17.254 17.254 0 00-4.113 6.673l-34.133 102.4c-2.979 8.943 1.856 18.607 10.799 21.585 1.735.578 3.552.873 5.38.875a17.336 17.336 0 005.393-.87l102.4-34.133c2.515-.84 4.8-2.254 6.673-4.13l224.802-224.802c25.515-25.512 25.518-66.878.007-92.393zm-24.139 68.277L212.736 309.286l-66.287 22.135 22.067-66.202L390.468 43.353c12.202-12.178 31.967-12.158 44.145.044a31.215 31.215 0 019.12 21.955 31.043 31.043 0 01-9.13 22.067z"></path>
  </symbol>
  <symbol fill="none" xmlns="http://www.w3.org/2000/svg" xmlns:xlink="http://www.w3.org/1999/xlink" viewBox="0 0 25 25" id="home">
    <path d="m27.09375 187.53125 12.910156-12.414062v176.886718c0 17.648438 14.351563 32 32 32h240c17.648438 0 32-14.351562 32-32v-176.886718l12.914063 12.414062c3.09375 2.984375 7.09375 4.472656 11.085937 4.472656 4.199219 0 8.394532-1.648437 11.539063-4.910156 6.125-6.367188 5.925781-16.496094-.441407-22.625l-39.769531-38.246094c-.007812-.007812-.023437-.027344-.03125-.035156l-119.007812-114.460938c-7.558594-7.554687-17.609375-11.72265575-28.289063-11.72265575-10.679687 0-20.726562 4.16796875-28.054687 11.50390575l-119.238281 114.6875c-.011719.007813-.027344.019532-.035157.035157l-39.765625 38.246093c-6.367187 6.128907-6.570312 16.257813-.441406 22.625 6.128906 6.359376 16.257812 6.566407 22.625.429688zm220.910156 164.472656h-112v-112c0-17.648437 14.351563-32 32-32h48c17.648438 0 32 14.351563 32 32zm-61.65625-317.65625c2.042969-2.039062 4.417969-2.34375 5.65625-2.34375 1.242188 0 3.617188.304688 5.882813 2.5625l114.117187 109.773438v207.664062h-32v-112c0-35.285156-28.710937-64-64-64h-48c-35.285156 0-64 28.714844-64 64v112h-32v-207.664062zm0 0"/>
  </symbol>
  <symbol fill="#000" xmlns="http://www.w3.org/2000/svg" xmlns:xlink="http://www.w3.org/1999/xlink" viewBox="0 0 479.058 479.058" id="msg">
    <path d="m434.146 59.882h-389.234c-24.766 0-44.912 20.146-44.912 44.912v269.47c0 24.766 20.146 44.912 44.912 44.912h389.234c24.766 0 44.912-20.146 44.912-44.912v-269.47c0-24.766-20.146-44.912-44.912-44.912zm0 29.941c2.034 0 3.969.422 5.738 1.159l-200.355 173.649-200.356-173.649c1.769-.736 3.704-1.159 5.738-1.159zm0 299.411h-389.234c-8.26 0-14.971-6.71-14.971-14.971v-251.648l199.778 173.141c2.822 2.441 6.316 3.655 9.81 3.655s6.988-1.213 9.81-3.655l199.778-173.141v251.649c-.001 8.26-6.711 14.97-14.971 14.97z"/>
    
  </symbol>
  <symbol fill="#000" xmlns="http://www.w3.org/2000/svg" xmlns:xlink="http://www.w3.org/1999/xlink" viewBox="0 0 479.058 479.058" id="email">
    <path d="m434.146 59.882h-389.234c-24.766 0-44.912 20.146-44.912 44.912v269.47c0 24.766 20.146 44.912 44.912 44.912h389.234c24.766 0 44.912-20.146 44.912-44.912v-269.47c0-24.766-20.146-44.912-44.912-44.912zm0 29.941c2.034 0 3.969.422 5.738 1.159l-200.355 173.649-200.356-173.649c1.769-.736 3.704-1.159 5.738-1.159zm0 299.411h-389.234c-8.26 0-14.971-6.71-14.971-14.971v-251.648l199.778 173.141c2.822 2.441 6.316 3.655 9.81 3.655s6.988-1.213 9.81-3.655l199.778-173.141v251.649c-.001 8.26-6.711 14.97-14.971 14.97z"/>
    
  </symbol>
  <symbol xmlns="http://www.w3.org/2000/svg" viewBox="0 0 512 512" id="paw">
    <path d="M378.608 290.994c-34.448-41.592-77.99-64.498-122.608-64.498s-88.161 22.906-122.607 64.498c-30.964 37.385-49.448 84.501-49.448 126.035 0 20.176 6.168 35.544 18.332 45.679 12.006 10.004 27.857 13.388 45.541 13.387 18.817 0 39.711-3.832 60.24-7.598 17.939-3.291 34.883-6.399 47.943-6.399 11.272 0 27.165 2.95 43.988 6.073 39.317 7.3 83.881 15.572 109.624-5.832 12.238-10.175 18.443-25.42 18.443-45.31.001-41.534-18.484-88.65-49.448-126.035zm11.825 148.277c-14.923 12.409-53.762 5.198-84.97-.595-18.221-3.383-35.431-6.578-49.464-6.578-15.789 0-34.036 3.348-53.356 6.892-29.931 5.49-67.181 12.324-81.165.671-1.864-1.553-7.536-6.279-7.536-22.633 0-34.246 16.306-75.208 42.553-106.899 28.645-34.586 63.983-53.634 99.503-53.634s70.858 19.048 99.503 53.634c26.248 31.691 42.553 72.653 42.553 106.899.003 15.905-5.735 20.676-7.621 22.243zM382.13 65.146c-12.604-18.583-30.652-29.239-49.517-29.239-18.866 0-36.913 10.658-49.517 29.239-11.578 17.071-17.955 39.489-17.955 63.125 0 23.636 6.376 46.054 17.955 63.125 12.604 18.582 30.652 29.24 49.517 29.24 18.866 0 36.913-10.658 49.517-29.24 11.578-17.071 17.955-39.489 17.955-63.125 0-23.636-6.376-46.055-17.955-63.125zm-24.827 109.411c-4.073 6.005-12.697 16.08-24.69 16.08-11.993 0-20.616-10.074-24.69-16.08-8.124-11.978-12.783-28.849-12.783-46.286 0-17.438 4.66-34.308 12.783-46.286 4.073-6.005 12.697-16.08 24.69-16.08 11.993 0 20.617 10.074 24.69 16.08 8.124 11.978 12.783 28.849 12.783 46.286-.001 17.437-4.659 34.308-12.783 46.286zM228.905 65.145c-12.604-18.583-30.651-29.24-49.517-29.24s-36.914 10.658-49.517 29.24c-11.578 17.071-17.955 39.489-17.955 63.125s6.376 46.054 17.955 63.125c12.604 18.583 30.651 29.241 49.517 29.241s36.913-10.658 49.517-29.241c11.578-17.071 17.955-39.488 17.955-63.125-.001-23.636-6.377-46.055-17.955-63.125zm-24.829 109.412c-4.073 6.005-12.697 16.08-24.689 16.08-11.993 0-20.617-10.075-24.69-16.08-8.124-11.978-12.783-28.849-12.783-46.286 0-17.438 4.66-34.308 12.783-46.286 4.073-6.005 12.697-16.08 24.69-16.08s20.616 10.074 24.689 16.08c8.124 11.978 12.783 28.849 12.783 46.286s-4.659 34.308-12.783 46.286zm304.943 35.576c-5.081-17.284-15.972-29.843-30.665-35.362-11.824-4.441-25.171-3.688-37.583 2.121-17.105 8.004-31.086 24.532-38.356 45.345-5.941 17.008-6.682 34.985-2.085 50.622 5.081 17.284 15.972 29.843 30.666 35.362 5.085 1.91 10.45 2.859 15.902 2.859 7.227 0 14.607-1.669 21.682-4.98 17.105-8.004 31.086-24.532 38.356-45.344v-.001c5.94-17.007 6.681-34.985 2.083-50.622zm-30.405 40.729c-4.556 13.041-13.061 23.533-22.75 28.067-3.563 1.666-8.938 3.229-14.32 1.208-12.988-4.879-18.04-27.313-10.81-48.007 4.556-13.041 13.061-23.533 22.751-28.068 2.362-1.105 5.52-2.164 8.948-2.164 1.744 0 3.558.274 5.371.955 12.988 4.88 18.04 27.314 10.81 48.009zm-369.027-28.627c-7.271-20.813-21.252-37.34-38.356-45.344-12.413-5.809-25.761-6.561-37.584-2.121-14.694 5.52-25.585 18.079-30.666 35.362-4.597 15.637-3.856 33.615 2.085 50.622v.001c7.272 20.813 21.252 37.34 38.356 45.344 7.076 3.311 14.455 4.98 21.682 4.98 5.452 0 10.818-.95 15.902-2.859 14.696-5.52 25.586-18.079 30.667-35.362 4.595-15.636 3.854-33.614-2.086-50.623zm-39.131 57.902c-5.381 2.021-10.757.458-14.319-1.208-9.689-4.534-18.195-15.026-22.75-28.067v.001c-7.229-20.695-2.178-43.128 10.81-48.008 5.38-2.021 10.757-.458 14.32 1.208 9.69 4.535 18.195 15.027 22.75 28.067 7.229 20.695 2.177 43.128-10.811 48.007z"></path>
  </symbol>
  <symbol xmlns="http://www.w3.org/2000/svg" viewBox="0 0 513.64 513.64" id="phone">
    <path d="M499.66 376.96l-71.68-71.68c-25.6-25.6-69.12-15.359-79.36 17.92-7.68 23.041-33.28 35.841-56.32 30.72-51.2-12.8-120.32-79.36-133.12-133.12-7.68-23.041 7.68-48.641 30.72-56.32 33.28-10.24 43.52-53.76 17.92-79.36l-71.68-71.68c-20.48-17.92-51.2-17.92-69.12 0L18.38 62.08c-48.64 51.2 5.12 186.88 125.44 307.2s256 176.641 307.2 125.44l48.64-48.64c17.921-20.48 17.921-51.2 0-69.12z"></path>
  </symbol>
  <symbol viewBox="0 0 512 512" id="user" xmlns="http://www.w3.org/2000/svg">
  <path d="m437.019531 74.980469c-48.351562-48.351563-112.640625-74.980469-181.019531-74.980469-68.382812 0-132.667969 26.628906-181.019531 74.980469-48.351563 48.351562-74.980469 112.636719-74.980469 181.019531 0 68.378906 26.628906 132.667969 74.980469 181.019531 48.351562 48.351563 112.636719 74.980469 181.019531 74.980469 68.378906 0 132.667969-26.628906 181.019531-74.980469 48.351563-48.351562 74.980469-112.640625 74.980469-181.019531 0-68.382812-26.628906-132.667969-74.980469-181.019531zm-308.679687 367.40625c10.707031-61.648438 64.128906-107.121094 127.660156-107.121094 63.535156 0 116.953125 45.472656 127.660156 107.121094-36.347656 24.972656-80.324218 39.613281-127.660156 39.613281s-91.3125-14.640625-127.660156-39.613281zm46.261718-218.519531c0-44.886719 36.515626-81.398438 81.398438-81.398438s81.398438 36.515625 81.398438 81.398438c0 44.882812-36.515626 81.398437-81.398438 81.398437s-81.398438-36.515625-81.398438-81.398437zm235.042969 197.710937c-8.074219-28.699219-24.109375-54.738281-46.585937-75.078125-13.789063-12.480469-29.484375-22.328125-46.359375-29.269531 30.5-19.894531 50.703125-54.3125 50.703125-93.363281 0-61.425782-49.976563-111.398438-111.402344-111.398438s-111.398438 49.972656-111.398438 111.398438c0 39.050781 20.203126 73.46875 50.699219 93.363281-16.871093 6.941406-32.570312 16.785156-46.359375 29.265625-22.472656 20.339844-38.511718 46.378906-46.585937 75.078125-44.472657-41.300781-72.355469-100.238281-72.355469-165.574219 0-124.617188 101.382812-226 226-226s226 101.382812 226 226c0 65.339844-27.882812 124.277344-72.355469 165.578125zm0 0"/>
  </symbol>
  <symbol version="1.1" id="time" xmlns="http://www.w3.org/2000/svg" xmlns:xlink="http://www.w3.org/1999/xlink" x="0px" y="0px"
    viewBox="0 0 477.867 477.867" style="enable-background:new 0 0 477.867 477.867;" xml:space="preserve">
  <g>
    <g>
      <path d="M238.933,0C106.974,0,0,106.974,0,238.933s106.974,238.933,238.933,238.933s238.933-106.974,238.933-238.933
        C477.726,107.033,370.834,0.141,238.933,0z M238.933,443.733c-113.108,0-204.8-91.692-204.8-204.8s91.692-204.8,204.8-204.8
        s204.8,91.692,204.8,204.8C443.611,351.991,351.991,443.611,238.933,443.733z"/>
    </g>
  </g>
  <g>
    <g>
      <path d="M238.933,85.333c-9.426,0-17.067,7.641-17.067,17.067v119.467H102.4c-9.426,0-17.067,7.641-17.067,17.067
        S92.974,256,102.4,256h136.533c9.426,0,17.067-7.641,17.067-17.067V102.4C256,92.974,248.359,85.333,238.933,85.333z"/>
    </g>
  </g>
  <g>
  </g>
  <g>
  </g>
  <g>
  </g>
  <g>
  </g>
  <g>
  </g>
  <g>
  </g>
  <g>
  </g>
  <g>
  </g>
  <g>
  </g>
  <g>
  </g>
  <g>
  </g>
  <g>
  </g>
  <g>
  </g>
  <g>
  </g>
  <g>
  </g>
  </symbol>
  <symbol id="chat" xmlns="http://www.w3.org/2000/svg" xmlns:xlink="http://www.w3.org/1999/xlink" x="0px" y="0px"
    viewBox="0 0 512 512" style="enable-background:new 0 0 512 512;" xml:space="preserve">
  <g>
    <g>
      <path d="M256,0C114.848,0,0,114.848,0,256c0,49.216,13.792,96.48,39.936,137.216L1.152,490.048
        c-2.368,5.952-0.992,12.736,3.552,17.28C7.744,510.368,11.84,512,16,512c2.016,0,4-0.384,5.952-1.152l96.832-38.784
        C159.52,498.208,206.784,512,256,512c141.152,0,256-114.848,256-256S397.152,0,256,0z M256,480
        c-45.632,0-89.312-13.504-126.272-39.072c-2.688-1.888-5.888-2.848-9.088-2.848c-2.016,0-4.032,0.384-5.952,1.152l-69.952,28.032
        l28.032-69.952c1.984-4.992,1.344-10.656-1.696-15.04C45.504,345.312,32,301.632,32,256C32,132.48,132.48,32,256,32
        s224,100.48,224,224S379.52,480,256,480z"/>
    </g>
  </g>
  <g>
  </g>
  <g>
  </g>
  <g>
  </g>
  <g>
  </g>
  <g>
  </g>
  <g>
  </g>
  <g>
  </g>
  <g>
  </g>
  <g>
  </g>
  <g>
  </g>
  <g>
  </g>
  <g>
  </g>
  <g>
  </g>
  <g>
  </g>
  <g>
  </g>
  </symbol>
  <symbol version="1.1" id="edit" xmlns="http://www.w3.org/2000/svg" xmlns:xlink="http://www.w3.org/1999/xlink" x="0px" y="0px"
    viewBox="0 0 477.873 477.873" style="enable-background:new 0 0 477.873 477.873;" xml:space="preserve">
  <g>
    <g>
      <path d="M392.533,238.937c-9.426,0-17.067,7.641-17.067,17.067V426.67c0,9.426-7.641,17.067-17.067,17.067H51.2
        c-9.426,0-17.067-7.641-17.067-17.067V85.337c0-9.426,7.641-17.067,17.067-17.067H256c9.426,0,17.067-7.641,17.067-17.067
        S265.426,34.137,256,34.137H51.2C22.923,34.137,0,57.06,0,85.337V426.67c0,28.277,22.923,51.2,51.2,51.2h307.2
        c28.277,0,51.2-22.923,51.2-51.2V256.003C409.6,246.578,401.959,238.937,392.533,238.937z"/>
    </g>
  </g>
  <g>
    <g>
      <path d="M458.742,19.142c-12.254-12.256-28.875-19.14-46.206-19.138c-17.341-0.05-33.979,6.846-46.199,19.149L141.534,243.937
        c-1.865,1.879-3.272,4.163-4.113,6.673l-34.133,102.4c-2.979,8.943,1.856,18.607,10.799,21.585
        c1.735,0.578,3.552,0.873,5.38,0.875c1.832-0.003,3.653-0.297,5.393-0.87l102.4-34.133c2.515-0.84,4.8-2.254,6.673-4.13
        l224.802-224.802C484.25,86.023,484.253,44.657,458.742,19.142z M434.603,87.419L212.736,309.286l-66.287,22.135l22.067-66.202
        L390.468,43.353c12.202-12.178,31.967-12.158,44.145,0.044c5.817,5.829,9.095,13.72,9.12,21.955
        C443.754,73.631,440.467,81.575,434.603,87.419z"/>
    </g>
  </g>
  <g>
  </g>
  <g>
  </g>
  <g>
  </g>
  <g>
  </g>
  <g>
  </g>
  <g>
  </g>
  <g>
  </g>
  <g>
  </g>
  <g>
  </g>
  <g>
  </g>
  <g>
  </g>
  <g>
  </g>
  <g>
  </g>
  <g>
  </g>
  <g>
  </g>
  </symbol>
  <symbol id="filter" viewBox="0 0 511 511.99982" xmlns="http://www.w3.org/2000/svg">
  <path d="m492.476562 0h-471.976562c-11.046875 0-20 8.953125-20 20 0 55.695312 23.875 108.867188 65.503906 145.871094l87.589844 77.851562c15.1875 13.5 23.898438 32.898438 23.898438 53.222656v195.03125c0 15.9375 17.8125 25.492188 31.089843 16.636719l117.996094-78.660156c5.5625-3.710937 8.90625-9.953125 8.90625-16.640625v-116.367188c0-20.324218 8.710937-39.722656 23.898437-53.222656l87.585938-77.851562c41.628906-37.003906 65.503906-90.175782 65.503906-145.871094 0-11.046875-8.953125-20-19.996094-20zm-72.082031 135.972656-87.585937 77.855469c-23.71875 21.085937-37.324219 51.378906-37.324219 83.113281v105.667969l-77.996094 51.996094v-157.660157c0-31.738281-13.605469-62.03125-37.324219-83.117187l-87.585937-77.851563c-28.070313-24.957031-45.988281-59.152343-50.785156-95.980468h429.386719c-4.796876 36.828125-22.710938 71.023437-50.785157 95.976562zm0 0"/>
  </symbol>
  <symbol version="1.1" id="cat" xmlns="http://www.w3.org/2000/svg" xmlns:xlink="http://www.w3.org/1999/xlink" x="0px" y="0px"
    viewBox="0 0 469.545 469.545" style="enable-background:new 0 0 469.545 469.545;" xml:space="preserve">
  <path d="M465.321,76.386c-3.311-2.855-7.95-3.536-12.109-2.186c-15.471,5.019-27.112,15.016-32.71,20.568
    c-10.336-3.176-21.51-3.177-31.847,0c-5.665-5.619-17.521-15.79-33.272-20.748c-4.695-1.476-9.786-0.011-12.985,3.83
    c-2.714,3.258-3.4,7.757-2.083,11.787c3.928,12.021,10.288,30.958,12.517,37.583c-0.99,3.303-1.593,6.767-1.797,10.333
    c-0.195,3.42-0.137,6.697,0.142,9.835l-4.397,9.325c-2.881,6.11-8.646,10.35-15.338,11.272
    c-24.34,3.357-71.717,10.134-115.565,17.82c-56.753,9.947-79.236,16.497-88.88,20.521c-8.229-12.502-19.95-22.684-33.589-29.063
    c-20.714-9.687-55.369-30.754-54.737-63.015c0.573-29.193,11.615-46.438,20.777-55.765c3.912-3.982,5.965-9.463,5.631-15.038
    c-0.334-5.585-3.032-10.794-7.404-14.292c-8.456-6.765-20.539-5.585-27.509,2.683C6.967,59.355,1.411,97.464,0.163,117.731
    c-1.257,20.43,4.744,39.332,17.838,56.182c9.39,12.083,22.207,22.851,38.094,32.004c15.404,8.874,26.537,23.038,31.35,39.883h0
    c0.423,1.481,0.623,3.016,0.593,4.556l-0.153,7.786c-0.075,3.808-0.377,7.608-0.906,11.38L81.7,307.197
    c-2.071,14.783-11.557,27.215-24.833,34.041c-9.225,4.743-14.497,14.839-13.118,25.12l9.648,71.922
    c0.499,3.723,3.677,6.503,7.434,6.503h39.684c1.604,0,3.205-0.426,4.512-1.356c2.667-1.896,3.746-5.166,2.917-8.152l-0.428-1.542
    c-3.116-11.22-11.649-19.811-22.496-23.115l-1.865-15.386c-0.523-4.315,1.927-8.44,5.965-10.046l37.914-15.078
    c-0.006,0.402-0.02,0.799-0.048,1.185c-0.003,0.046-0.006,0.093-0.009,0.14c-0.374,7.112-0.654,13.518-0.833,19.04
    c-0.246,7.583,2.652,14.925,8.017,20.29l31.822,31.822c1.406,1.407,3.314,2.197,5.303,2.197h46.009c3.958,0,7.296-3.239,7.509-7.191
    c0.743-13.751-8.938-25.655-22.568-27.72l-13.158-1.993l-5.435-8.54c-2.671-4.198-2.584-9.564,0.222-13.673l35.887-52.55
    c10.906-3.368,56.903-16.665,83.875-10.366c0.355,3.551,1.335,7.025,2.915,10.271l52.318,107.543
    c1.255,2.581,3.874,4.219,6.744,4.219l35.585,0c1.577,0,3.151-0.409,4.447-1.306c2.656-1.839,3.782-5.042,3.039-8.012l-2.416-9.663
    c-2.332-9.326-9.295-16.48-18.074-19.277l8.713-75.8c0.364-3.164,1.304-6.229,2.78-9.05c5.418-10.354,16.062-30.256,26.394-47.059
    c8.12-13.205,13.344-28.387,15.106-43.907c2.682-23.613,7.939-53.773,9.242-61.113c5.775-8.266,8.434-19.208,7.701-32.043
    c-0.204-3.566-0.807-7.03-1.797-10.333c2.248-6.68,8.696-25.882,12.616-37.886c0,0,0,0,0,0
    C470.457,84.69,469.072,79.622,465.321,76.386z M83.577,371.247c-10.358,4.12-16.655,14.725-15.313,25.79l2.508,20.692
    c0.417,3.437,3.131,6.142,6.569,6.546c4.358,0.513,8.263,2.503,11.171,5.506h-21.12l-8.775-65.419
    c-0.538-4.005,1.516-7.938,5.109-9.786c16.658-8.567,28.496-24.242,32.285-42.448c13.497,15.917,23.12,30.958,27.801,43.117
    L83.577,371.247z M413.295,266.757c-10.563,17.176-21.385,37.409-26.896,47.941c-2.345,4.481-3.826,9.297-4.403,14.313
    l-4.111,35.769l-9.058-44.838c-0.858-4.249,0.122-8.688,2.69-12.18l20.663-28.102c11.422-15.534,16.619-34.651,14.634-53.831
    c-0.426-4.12-4.114-7.113-8.232-6.688c-4.12,0.426-7.115,4.112-6.688,8.232c1.6,15.463-2.59,30.876-11.799,43.401l-20.663,28.102
    c-5.066,6.89-7.001,15.651-5.308,24.036l18.447,91.312c0.707,3.499,3.782,6.015,7.352,6.015c5.584,0,10.431,3.784,11.786,9.202
    l0.086,0.344h-21.498L320.03,326.457c-1.28-2.631-1.784-5.558-1.456-8.466l7.438-66.006c0.464-4.116-2.497-7.829-6.613-8.292
    c-4.122-0.462-7.828,2.497-8.292,6.613l-6.464,57.363c-24.48-4.633-58.124,2.537-77.232,7.63c1.549-10.06-0.982-20.562-7.531-29.021
    l-10.959-14.155c-2.536-3.275-7.246-3.875-10.522-1.339c-3.275,2.536-3.875,7.247-1.339,10.522l10.959,14.155
    c6.128,7.916,6.453,18.789,0.807,27.057l-37.348,54.688c-6.195,9.071-6.387,20.919-0.49,30.186l7.266,11.418
    c1.164,1.828,3.062,3.064,5.204,3.389l16.53,2.504c3.389,0.513,6.218,2.422,7.963,5.08h-33.559l-29.625-29.625
    c-2.419-2.419-3.742-5.771-3.631-9.196c0.175-5.407,0.45-11.689,0.817-18.675c1.662-24.011-21.802-55.131-35.947-71.555
    c-2.493-2.895-3.825-6.579-3.75-10.374l0.846-43.156c0.015-0.746-1.235-5.523-1.235-5.523
    c-5.889-20.613-19.485-37.929-38.285-48.759c-42.32-24.381-49.705-53.844-48.448-74.268c2.64-42.907,17.736-66.753,26.5-77.148
    c1.687-2,4.617-2.281,6.669-0.638c1.456,1.165,1.754,2.677,1.801,3.475c0.047,0.791-0.066,2.315-1.358,3.63
    c-11.069,11.267-24.404,31.86-25.074,65.983c-0.799,40.744,39.366,65.667,63.379,76.896c12.869,6.018,23.641,16.179,30.333,28.611
    c0,0,0.35,0.648,0.418,0.762c1.104,1.84,2.951,3.124,5.061,3.518c2.142,0.401,4.359-0.153,6.063-1.513
    c7.807-6.232,66.066-20.287,204.567-39.385c9.915-1.367,18.596-6.842,24.113-14.964c1.39,2.24,2.979,4.314,4.789,6.185
    c7.596,7.854,18.485,11.98,31.55,11.98c0.487,0,19.667-0.016,19.667-0.016c0.043,0,0.086,0,0.129-0.001
    c7.053,0.163,13.495-0.86,19.166-2.992c-2.136,12.932-4.904,30.759-6.633,45.979C424.759,242.363,420.27,255.414,413.295,266.757z
    M441.375,124.614c-0.612,1.663-0.623,3.512,0.011,5.211c0.995,2.668,1.587,5.556,1.76,8.582
    c0.629,11.008-1.849,19.732-7.166,25.229c-4.896,5.063-12.486,7.617-21.94,7.395c-0.073-0.002-0.144-0.002-0.215-0.002
    c-0.071,0-18.584-0.017-18.934,0.007c-9.349,0.17-16.855-2.375-21.715-7.399c-5.317-5.497-7.795-14.221-7.166-25.228
    c0.173-3.025,0.766-5.913,1.761-8.583c0.627-1.684,0.622-3.515,0.025-5.166c-0.626-1.859-6.841-20.313-11.448-34.275
    c14.646,6.394,24.358,17.796,24.456,17.912c2.11,2.533,5.629,3.39,8.67,2.112c9.6-4.039,20.61-4.039,30.208,0
    c3.027,1.273,6.544,0.416,8.659-2.098c0.108-0.128,9.821-11.532,24.467-17.926C448.236,104.24,442.08,122.524,441.375,124.614z"/>
  <g>
  </g>
  <g>
  </g>
  <g>
  </g>
  <g>
  </g>
  <g>
  </g>
  <g>
  </g>
  <g>
  </g>
  <g>
  </g>
  <g>
  </g>
  <g>
  </g>
  <g>
  </g>
  <g>
  </g>
  <g>
  </g>
  <g>
  </g>
  <g>
  </g>
  </symbol>
  <symbol id="dog" enable-background="new 0 0 512 512" viewBox="0 0 512 512"  xmlns="http://www.w3.org/2000/svg">
  <g>
  <path d="m509.158 463.213c-13.333-31.111-43.819-51.213-77.666-51.213h-41.492v-24.874c0-33.245-9.921-65.321-28.692-92.76-18.77-27.439-45.069-48.312-76.054-60.361-47.061-18.301-79.584-60.866-84.878-111.082l-1.821-17.278 11.481-32.146c6.008-16.821 3.451-35.581-6.838-50.181-10.29-14.601-27.096-23.318-44.958-23.318h-49.208c-12.442 0-24.644 4.28-34.359 12.052l-34.935 27.948h-24.738c-3.978 0-7.793 1.581-10.606 4.394s-4.394 6.628-4.394 10.606v60c0 19.253 15.729 34.954 35.061 35 12.948.031 23.624 9.977 24.826 22.619l-3.608 9.754c-16.737 45.238-11.567 96.098 13.721 137.006v115.191c-17.461 6.191-30 22.874-30 42.43v20c0 8.284 6.716 15 15 15h421.988c11.8 0 22.724-5.881 29.22-15.733 6.496-9.851 7.599-22.208 2.95-33.054zm-439.158 13.787c0-8.271 6.729-15 15-15 8.284 0 15-6.716 15-15v-132c0-2.938-.863-5.811-2.48-8.262-22.174-33.599-27.073-76.199-13.105-113.956l4.653-12.578c.617-1.665.932-3.428.932-5.204 0-30.255-24.614-54.928-54.868-55-2.83-.007-5.131-2.25-5.131-5v-45h15c3.406 0 6.711-1.159 9.371-3.287l39.043-31.235c4.415-3.533 9.961-5.478 15.616-5.478h49.208c8.24 0 15.688 3.863 20.435 10.599s5.88 15.05 3.109 22.81l-13.277 37.176c-.958 2.681-3.031 3.283-4.602 3.317-1.598.033-3.668-.479-4.739-3.117l-12.769-31.429c-3.118-7.675-11.868-11.371-19.543-8.251-7.675 3.118-11.369 11.868-8.251 19.542l12.769 31.43c5.512 13.568 18.546 22.144 33.176 21.819 2.362-.051 4.665-.354 6.899-.845 4.088 27.444 15.043 53.434 31.937 75.545 18.322 23.979 42.873 42.434 70.998 53.371 52.012 20.224 85.619 69.353 85.619 125.159v69.874c0 13.785-11.215 25-25 25h-125v-15c0-8.271 6.729-15 15-15h30c8.284 0 15-6.716 15-15 0-24.813 20.187-45 45-45 8.284 0 15-6.716 15-15s-6.716-15-15-15c-36.219 0-66.522 25.808-73.491 60h-16.509c-24.813 0-45 20.187-45 45v15h-20v-207c0-8.284-6.716-15-15-15s-15 6.716-15 15v207h-60zm411.163 2.752c-.554.839-1.832 2.248-4.174 2.248h-93.023c3.849-7.507 6.035-16 6.035-25v-15h41.492c21.83 0 41.492 12.965 50.092 33.031.922 2.153.131 3.882-.422 4.721z"/>
  </g>
  </symbol>
  <symbol version="1.1" id="other" xmlns="http://www.w3.org/2000/svg" xmlns:xlink="http://www.w3.org/1999/xlink" x="0px" y="0px"
    viewBox="0 0 426.667 426.667" style="enable-background:new 0 0 426.667 426.667;" xml:space="preserve">
  <g>
    <g>
      <circle cx="42.667" cy="213.333" r="42.667"/>
    </g>
  </g>
  <g>
    <g>
      <circle cx="213.333" cy="213.333" r="42.667"/>
    </g>
  </g>
  <g>
    <g>
      <circle cx="384" cy="213.333" r="42.667"/>
    </g>
  </g>
  <g>
  </g>
  <g>
  </g>
  <g>
  </g>
  <g>
  </g>
  <g>
  </g>
  <g>
  </g>
  <g>
  </g>
  <g>
  </g>
  <g>
  </g>
  <g>
  </g>
  <g>
  </g>
  <g>
  </g>
  <g>
  </g>
  <g>
  </g>
  <g>
  </g>
  </symbol>
  <symbol version="1.1" id="view" xmlns="http://www.w3.org/2000/svg" xmlns:xlink="http://www.w3.org/1999/xlink" x="0px" y="0px"
    viewBox="0 0 511.999 511.999" style="enable-background:new 0 0 511.999 511.999;" xml:space="preserve">
  <g>
    <g>
      <path d="M508.745,246.041c-4.574-6.257-113.557-153.206-252.748-153.206S7.818,239.784,3.249,246.035
        c-4.332,5.936-4.332,13.987,0,19.923c4.569,6.257,113.557,153.206,252.748,153.206s248.174-146.95,252.748-153.201
        C513.083,260.028,513.083,251.971,508.745,246.041z M255.997,385.406c-102.529,0-191.33-97.533-217.617-129.418
        c26.253-31.913,114.868-129.395,217.617-129.395c102.524,0,191.319,97.516,217.617,129.418
        C447.361,287.923,358.746,385.406,255.997,385.406z"/>
    </g>
  </g>
  <g>
    <g>
      <path d="M255.997,154.725c-55.842,0-101.275,45.433-101.275,101.275s45.433,101.275,101.275,101.275
        s101.275-45.433,101.275-101.275S311.839,154.725,255.997,154.725z M255.997,323.516c-37.23,0-67.516-30.287-67.516-67.516
        s30.287-67.516,67.516-67.516s67.516,30.287,67.516,67.516S293.227,323.516,255.997,323.516z"/>
    </g>
  </g>
  </symbol>
  <symbol version="1.1" id="sex" xmlns="http://www.w3.org/2000/svg" xmlns:xlink="http://www.w3.org/1999/xlink" x="0px" y="0px"
    viewBox="0 0 512 512" style="enable-background:new 0 0 512 512;" xml:space="preserve">
  <g>
    <g>
      <path d="M403.921,0v31.347h35.36l-68.982,65.409c-24.421-24.99-58.474-40.53-96.092-40.53c-50.603,0-94.759,28.112-117.687,69.535
        c-1.964-0.086-3.938-0.138-5.924-0.138c-74.118,0-134.417,60.299-134.417,134.418c0,68.816,51.984,125.71,118.743,133.498v41.657
        H87.995v31.347h46.929V512h31.347v-45.458h48.977v-31.347h-48.977v-41.657c43.948-5.127,81.488-31.533,102.013-68.616
        c1.964,0.086,3.937,0.138,5.922,0.138c74.119,0,134.418-60.299,134.418-134.417c0-25.187-6.969-48.774-19.071-68.944
        l74.919-71.038v38.933h31.347V0H403.921z M150.598,363.11c-56.833,0-103.07-46.237-103.07-103.071
        c0-54.619,42.705-99.442,96.477-102.853c-2.751,10.7-4.215,21.91-4.215,33.457c0,60.464,40.132,111.726,95.157,128.562
        C216.281,345.738,185.432,363.11,150.598,363.11z M249.044,290.6c-44.709-11.26-77.906-51.802-77.906-99.957
        c0-10.636,1.62-20.901,4.625-30.561c44.709,11.26,77.906,51.803,77.906,99.958C253.669,270.676,252.048,280.94,249.044,290.6z
        M280.801,293.495c2.751-10.7,4.215-21.909,4.215-33.456c0-60.464-40.132-111.726-95.156-128.563
        c18.666-26.532,49.516-43.905,84.349-43.905c56.834,0,103.071,46.237,103.071,103.071
        C377.278,245.261,334.573,290.085,280.801,293.495z"/>
    </g>
  </g>
  </symbol>
  <symbol id="vaccine" enable-background="new 0 0 512 512" viewBox="0 0 512 512" xmlns="http://www.w3.org/2000/svg">
  <g><path d="m89.246 507.607c5.857 5.858 15.355 5.858 21.213 0 5.858-5.857 5.858-15.355 0-21.213l-10.607-10.607 78.949-78.949 31.82 31.82c5.857 5.858 15.355 5.859 21.213 0 5.859-5.858 5.858-15.355 0-21.213-5.849-5.849-5.849-15.365-.002-21.211l169.771-169.706c2.814-2.813 4.396-6.629 4.396-10.609v-36.227l16.754-16.806c14.119-14.118 16.642-34.847 8.801-51.228l76.051-76.052c5.858-5.858 5.858-15.355 0-21.213-5.857-5.858-15.355-5.858-21.213 0l-76.07 76.071c-16.723-7.968-37.379-5.049-51.192 8.766l-16.821 16.77h-36.228c-3.979 0-7.796 1.581-10.608 4.396l-169.703 169.769c-5.85 5.85-15.364 5.848-21.214 0-5.857-5.858-15.355-5.858-21.213 0-5.858 5.857-5.858 15.355 0 21.213l31.82 31.82-78.95 78.949-10.607-10.607c-5.856-5.858-15.354-5.858-21.213 0-5.858 5.857-5.858 15.355 0 21.213 11.402 11.402 77.543 77.544 84.853 84.854zm312.295-397.147c5.827 5.827 5.903 15.309-.017 21.229l-10.541 10.574-21.246-21.246 10.59-10.557c5.851-5.849 15.366-5.847 21.214 0zm-89.245 25.54h29.999l33.705 33.706v29.999l-6.248 6.246-10.637-10.637c-5.857-5.858-15.355-5.858-21.213 0s-5.858 15.355 0 21.213l10.633 10.633-21.218 21.21-10.629-10.63c-5.857-5.857-15.355-5.858-21.213 0s-5.858 15.355 0 21.213l10.625 10.625-21.217 21.209-10.622-10.622c-5.857-5.857-15.355-5.858-21.213 0s-5.858 15.355 0 21.213l10.617 10.617-21.217 21.209-63.652-63.652zm-165.311 165.376 10.603-10.606 63.644 63.644-10.609 10.604c-3.67 3.669-6.628 7.862-8.805 12.409-15.419-15.419-52.543-52.543-67.244-67.244 4.547-2.177 8.74-5.135 12.411-8.807zm-10.609 53.036 21.213 21.213-78.949 78.949-21.213-21.213z"/></g>
  </symbol>

  <?xml version="1.0" encoding="iso-8859-1"?>


</svg>