<svg height="384pt" viewBox="0 0 384.01015 384" width="384pt" xmlns="http://www.w3.org/2000/svg"><path d="m27.09375 187.53125 12.910156-12.414062v176.886718c0 17.648438 14.351563 32 32 32h240c17.648438 0 32-14.351562 32-32v-176.886718l12.914063 12.414062c3.09375 2.984375 7.09375 4.472656 11.085937 4.472656 4.199219 0 8.394532-1.648437 11.539063-4.910156 6.125-6.367188 5.925781-16.496094-.441407-22.625l-39.769531-38.246094c-.007812-.007812-.023437-.027344-.03125-.035156l-119.007812-114.460938c-7.558594-7.554687-17.609375-11.72265575-28.289063-11.72265575-10.679687 0-20.726562 4.16796875-28.054687 11.50390575l-119.238281 114.6875c-.011719.007813-.027344.019532-.035157.035157l-39.765625 38.246093c-6.367187 6.128907-6.570312 16.257813-.441406 22.625 6.128906 6.359376 16.257812 6.566407 22.625.429688zm220.910156 164.472656h-112v-112c0-17.648437 14.351563-32 32-32h48c17.648438 0 32 14.351563 32 32zm-61.65625-317.65625c2.042969-2.039062 4.417969-2.34375 5.65625-2.34375 1.242188 0 3.617188.304688 5.882813 2.5625l114.117187 109.773438v207.664062h-32v-112c0-35.285156-28.710937-64-64-64h-48c-35.285156 0-64 28.714844-64 64v112h-32v-207.664062zm0 0"/></svg>