<svg width="25" height="24" viewBox="0 0 25 24" fill="none" xmlns="http://www.w3.org/2000/svg">
<path d="M24.9337 9.065C24.7445 8.48028 24.1805 8.07854 23.3867 7.96274L16.9163 7.01915L14.0227 1.13595C13.6677 0.413994 13.1127 0 12.5 0C11.8874 0 11.3324 0.413994 10.9772 1.13595L8.08394 7.01915L1.61324 7.96274C0.8194 8.07854 0.255395 8.48028 0.0661856 9.065C-0.123024 9.64972 0.0978476 10.3074 0.672343 10.8691L5.35452 15.4487L4.24902 21.9155C4.10768 22.7425 4.34858 23.2382 4.57555 23.5083C4.84201 23.8253 5.23016 23.9998 5.66885 23.9998C5.9992 23.9998 6.35035 23.903 6.71275 23.7118L12.5 20.6586L18.2875 23.7118C18.6499 23.903 19.0011 23.9998 19.3312 24H19.3314C19.7701 24 20.1585 23.8253 20.4247 23.5083C20.6517 23.2382 20.8926 22.7425 20.7511 21.9155L19.6459 15.4487L24.3277 10.8693C24.9022 10.3074 25.1231 9.64972 24.9337 9.065ZM23.3054 9.81662L18.3478 14.6659C18.1752 14.8347 18.0964 15.0782 18.1372 15.3165L19.3074 22.1641C19.3415 22.3634 19.3268 22.4765 19.3133 22.5293C19.261 22.5259 19.1489 22.5056 18.9692 22.4108L12.8409 19.1777C12.7341 19.1215 12.6172 19.0933 12.5 19.0933C12.3829 19.0933 12.2658 19.1215 12.1592 19.1777L6.03125 22.4106C5.85158 22.5054 5.73923 22.5259 5.68697 22.5293C5.67362 22.4765 5.65874 22.3634 5.69288 22.1641L6.86343 15.3166C6.90405 15.0782 6.82528 14.8347 6.65266 14.6661L1.69488 9.81662C1.55068 9.67556 1.49632 9.57546 1.4761 9.52474C1.52207 9.49565 1.62469 9.44665 1.824 9.41756L8.6758 8.41846C8.91441 8.38363 9.12059 8.23319 9.22721 8.01633L12.291 1.78651C12.3803 1.60526 12.4583 1.52257 12.5002 1.48755C12.542 1.52257 12.6202 1.60526 12.7093 1.78651L15.7733 8.01633C15.8801 8.23319 16.0863 8.38363 16.3249 8.41846L23.1761 9.41756C23.3756 9.44665 23.478 9.49565 23.524 9.52474C23.5038 9.57527 23.4496 9.67556 23.3054 9.81662Z" fill="#000"/>
</svg>
